<svg width="30" height="29" viewBox="0 0 30 29" fill="none" xmlns="http://www.w3.org/2000/svg">
<path d="M20.3 0H8.7C3.89512 0 0 3.89512 0 8.7V20.3C0 25.1049 3.89512 29 8.7 29H20.3C25.1049 29 29 25.1049 29 20.3V8.7C29 3.89512 25.1049 0 20.3 0Z" fill="url(#paint0_linear_506_18)"/>
<path d="M17.2984 11.5998C18.9001 11.5998 20.1984 10.3014 20.1984 8.6998C20.1984 7.09818 18.9001 5.7998 17.2984 5.7998C15.6968 5.7998 14.3984 7.09818 14.3984 8.6998C14.3984 10.3014 15.6968 11.5998 17.2984 11.5998Z" fill="#F3F4F6"/>
<path opacity="0.95" d="M2.80078 23.1999L8.60078 15.9499L12.9508 20.2999L18.0258 13.7749L26.0008 23.1999H2.80078Z" fill="#F3F4F6"/>
<path d="M24.5516 4.3501L26.0016 7.9751L29.6266 9.4251L26.0016 10.8751L24.5516 14.5001L23.1016 10.8751L19.4766 9.4251L23.1016 7.9751L24.5516 4.3501Z" fill="#F3F4F6"/>
<defs>
<linearGradient id="paint0_linear_506_18" x1="0" y1="0" x2="29" y2="29" gradientUnits="userSpaceOnUse">
<stop stop-color="#7C3AED"/>
<stop offset="1" stop-color="#EC4899"/>
</linearGradient>
</defs>
</svg>
