<svg width="320" height="44" viewBox="0 0 320 44" fill="none" xmlns="http://www.w3.org/2000/svg">
<g clip-path="url(#clip0_506_19)">
<g filter="url(#filter0_d_506_19)">
<path d="M46.17 11.8V34H41.31V11.8H46.17ZM54.2522 34H49.6322V19H53.9522L54.2522 20.56C55.2322 19.2 56.6922 18.52 58.6322 18.52C60.7122 18.52 62.2322 19.4 63.1922 21.16C63.5922 20.36 64.2122 19.72 65.0522 19.24C65.8922 18.76 66.8422 18.52 67.9022 18.52C69.7822 18.52 71.2122 19.03 72.1922 20.05C73.1922 21.05 73.6922 22.43 73.6922 24.19V34H69.0722V25.48C69.0722 24.56 68.8522 23.87 68.4122 23.41C67.9722 22.93 67.3722 22.69 66.6122 22.69C65.8522 22.69 65.2222 22.94 64.7222 23.44C64.2222 23.94 63.9722 24.78 63.9722 25.96V34H59.3522V25.48C59.3522 24.58 59.1322 23.9 58.6922 23.44C58.2722 22.96 57.6822 22.72 56.9222 22.72C56.1622 22.72 55.5222 22.97 55.0022 23.47C54.5022 23.97 54.2522 24.8 54.2522 25.96V34ZM75.6455 26.23C75.6455 23.95 76.3155 22.09 77.6555 20.65C78.9955 19.21 80.7255 18.49 82.8455 18.49C84.9455 18.49 86.4355 19.16 87.3155 20.5L87.5555 19H91.9055V33.04C91.9055 35.72 91.1755 37.82 89.7155 39.34C88.2555 40.88 86.2455 41.65 83.6855 41.65C81.3855 41.65 79.5055 41.03 78.0455 39.79C76.6055 38.57 75.7855 36.9 75.5855 34.78H80.2655C80.3055 35.62 80.6255 36.27 81.2255 36.73C81.8255 37.21 82.6355 37.45 83.6555 37.45C84.7755 37.45 85.6555 37.14 86.2955 36.52C86.9555 35.9 87.2855 35.06 87.2855 34V32.05C86.3055 33.23 84.7955 33.82 82.7555 33.82C80.6555 33.82 78.9455 33.12 77.6255 31.72C76.3055 30.3 75.6455 28.47 75.6455 26.23ZM80.2955 26.11C80.2955 27.19 80.6155 28.08 81.2555 28.78C81.9155 29.46 82.7555 29.8 83.7755 29.8C84.8355 29.8 85.6855 29.46 86.3255 28.78C86.9655 28.1 87.2855 27.21 87.2855 26.11C87.2855 25.01 86.9555 24.14 86.2955 23.5C85.6555 22.84 84.8055 22.51 83.7455 22.51C82.7255 22.51 81.8955 22.85 81.2555 23.53C80.6155 24.19 80.2955 25.05 80.2955 26.11ZM100.21 34H95.3498V11.8H103.93C106.63 11.8 108.71 12.43 110.17 13.69C111.65 14.93 112.39 16.7 112.39 19C112.39 21.86 111.16 23.92 108.7 25.18L112.6 34H107.29L103.96 26.23H100.21V34ZM100.21 16.12V21.97H103.9C104.96 21.97 105.78 21.71 106.36 21.19C106.96 20.67 107.26 19.94 107.26 19C107.26 18.06 106.97 17.35 106.39 16.87C105.83 16.37 105.01 16.12 103.93 16.12H100.21ZM120.739 34.39C118.479 34.39 116.619 33.65 115.159 32.17C113.699 30.67 112.969 28.77 112.969 26.47C112.969 24.13 113.679 22.22 115.099 20.74C116.539 19.26 118.389 18.52 120.649 18.52C123.009 18.52 124.869 19.24 126.229 20.68C127.609 22.12 128.299 24.06 128.299 26.5V27.67L117.409 27.73C117.669 29.67 118.809 30.64 120.829 30.64C121.709 30.64 122.439 30.49 123.019 30.19C123.599 29.89 123.969 29.47 124.129 28.93H128.359C128.079 30.59 127.249 31.92 125.869 32.92C124.509 33.9 122.799 34.39 120.739 34.39ZM120.679 22.27C118.879 22.27 117.809 23.14 117.469 24.88H123.709C123.709 24.08 123.429 23.45 122.869 22.99C122.329 22.51 121.599 22.27 120.679 22.27ZM134.819 34.39C133.239 34.39 131.979 33.96 131.039 33.1C130.119 32.24 129.659 31.07 129.659 29.59C129.659 28.21 130.129 27.11 131.069 26.29C132.029 25.47 133.409 24.99 135.209 24.85L139.409 24.52V24.28C139.409 22.78 138.559 22.03 136.859 22.03C134.859 22.03 133.859 22.73 133.859 24.13H130.019C130.019 22.43 130.659 21.07 131.939 20.05C133.239 19.03 134.959 18.52 137.099 18.52C139.279 18.52 140.959 19.11 142.139 20.29C143.319 21.45 143.909 23.1 143.909 25.24V34H139.829L139.529 32.02C139.289 32.7 138.719 33.27 137.819 33.73C136.939 34.17 135.939 34.39 134.819 34.39ZM136.439 30.97C137.359 30.97 138.089 30.75 138.629 30.31C139.169 29.87 139.439 29.23 139.439 28.39V27.58L137.099 27.79C136.099 27.87 135.389 28.04 134.969 28.3C134.569 28.54 134.369 28.9 134.369 29.38C134.369 30.44 135.059 30.97 136.439 30.97ZM152.922 34.39C150.762 34.39 149.032 33.68 147.732 32.26C146.452 30.84 145.812 28.95 145.812 26.59C145.812 24.19 146.482 22.25 147.822 20.77C149.162 19.27 150.962 18.52 153.222 18.52C154.142 18.52 155.012 18.69 155.832 19.03C156.652 19.37 157.282 19.82 157.722 20.38V11.38H162.342V34H157.992L157.752 32.08C157.352 32.78 156.712 33.34 155.832 33.76C154.952 34.18 153.982 34.39 152.922 34.39ZM151.422 29.14C152.082 29.82 152.952 30.16 154.032 30.16C155.112 30.16 155.992 29.82 156.672 29.14C157.352 28.44 157.692 27.53 157.692 26.41C157.692 25.29 157.352 24.39 156.672 23.71C155.992 23.01 155.112 22.66 154.032 22.66C152.952 22.66 152.082 23.01 151.422 23.71C150.782 24.39 150.462 25.29 150.462 26.41C150.462 27.53 150.782 28.44 151.422 29.14ZM164.012 41.2V37.33H166.562C167.342 37.33 167.932 37.18 168.332 36.88C168.732 36.58 169.082 36.03 169.382 35.23L169.652 34.51L163.622 19H168.572L171.842 28.63L175.472 19H180.272L172.652 37.27C172.032 38.79 171.272 39.89 170.372 40.57C169.492 41.27 168.392 41.62 167.072 41.62C165.972 41.62 164.952 41.48 164.012 41.2Z" fill="#F9FAFB"/>
</g>
<path d="M20.3 8H8.7C3.89512 8 0 11.8951 0 16.7V28.3C0 33.1049 3.89512 37 8.7 37H20.3C25.1049 37 29 33.1049 29 28.3V16.7C29 11.8951 25.1049 8 20.3 8Z" fill="url(#paint0_linear_506_19)"/>
<path d="M17.2984 19.5998C18.9001 19.5998 20.1984 18.3014 20.1984 16.6998C20.1984 15.0982 18.9001 13.7998 17.2984 13.7998C15.6968 13.7998 14.3984 15.0982 14.3984 16.6998C14.3984 18.3014 15.6968 19.5998 17.2984 19.5998Z" fill="#F3F4F6"/>
<path opacity="0.95" d="M2.80078 31.1999L8.60078 23.9499L12.9508 28.2999L18.0258 21.7749L26.0008 31.1999H2.80078Z" fill="#F3F4F6"/>
<path d="M24.5516 12.3501L26.0016 15.9751L29.6266 17.4251L26.0016 18.8751L24.5516 22.5001L23.1016 18.8751L19.4766 17.4251L23.1016 15.9751L24.5516 12.3501Z" fill="#F3F4F6"/>
</g>
<defs>
<filter id="filter0_d_506_19" x="37.3086" y="11.3799" width="146.965" height="38.27" filterUnits="userSpaceOnUse" color-interpolation-filters="sRGB">
<feFlood flood-opacity="0" result="BackgroundImageFix"/>
<feColorMatrix in="SourceAlpha" type="matrix" values="0 0 0 0 0 0 0 0 0 0 0 0 0 0 0 0 0 0 127 0" result="hardAlpha"/>
<feOffset dy="4"/>
<feGaussianBlur stdDeviation="2"/>
<feComposite in2="hardAlpha" operator="out"/>
<feColorMatrix type="matrix" values="0 0 0 0 0.486275 0 0 0 0 0 0 0 0 0 0 0 0 0 0.25 0"/>
<feBlend mode="normal" in2="BackgroundImageFix" result="effect1_dropShadow_506_19"/>
<feBlend mode="normal" in="SourceGraphic" in2="effect1_dropShadow_506_19" result="shape"/>
</filter>
<linearGradient id="paint0_linear_506_19" x1="0" y1="8" x2="29" y2="37" gradientUnits="userSpaceOnUse">
<stop stop-color="#7C3AED"/>
<stop offset="1" stop-color="#EC4899"/>
</linearGradient>
<clipPath id="clip0_506_19">
<rect width="320" height="44" fill="white"/>
</clipPath>
</defs>
</svg>
